<svg width="900" height="1800" viewBox="0 0 900 1800" fill="none" xmlns="http://www.w3.org/2000/svg" role="img" aria-label="Complaint tracker on iPhone mockup">
  <rect width="900" height="1800" fill="#EEF1F5"/>
  <rect x="170" y="90" width="560" height="1620" rx="82" fill="#000"/>
  <rect x="196" y="116" width="508" height="1568" rx="68" fill="white"/>
  <rect x="360" y="136" width="180" height="34" rx="17" fill="#111827"/>
  <text x="240" y="196" fill="#111827" font-size="30" font-family="Inter,Segoe UI,Arial" font-weight="700">9:41</text>

  <rect x="226" y="240" width="448" height="140" rx="26" fill="#0B2A4D"/>
  <text x="254" y="300" fill="white" font-size="30" font-family="Inter,Segoe UI,Arial" font-weight="700">Complaint Tracker</text>

  <circle cx="268" cy="430" r="17" fill="#10B981"/>
  <circle cx="342" cy="430" r="17" fill="#10B981"/>
  <circle cx="416" cy="430" r="17" fill="#10B981"/>
  <circle cx="490" cy="430" r="17" fill="#EC4899"/>
  <rect x="285" y="425" width="40" height="10" rx="5" fill="#10B981"/>
  <rect x="359" y="425" width="40" height="10" rx="5" fill="#10B981"/>
  <rect x="433" y="425" width="40" height="10" rx="5" fill="#10B981"/>

  <rect x="226" y="472" width="448" height="720" rx="24" fill="#F3F4F6" stroke="#E5E7EB"/>
  <text x="254" y="530" fill="#111827" font-size="30" font-family="Inter,Segoe UI,Arial" font-weight="700">Review Your Complaint</text>

  <text x="254" y="586" fill="#6B7280" font-size="22" font-family="Inter,Segoe UI,Arial">Provider</text>
  <text x="452" y="586" fill="#111827" font-size="22" font-family="Inter,Segoe UI,Arial">Other</text>
  <line x1="254" y1="605" x2="646" y2="605" stroke="#D1D5DB"/>

  <text x="254" y="652" fill="#6B7280" font-size="22" font-family="Inter,Segoe UI,Arial">Category</text>
  <text x="452" y="652" fill="#111827" font-size="22" font-family="Inter,Segoe UI,Arial">Billing &amp; Charges</text>
  <line x1="254" y1="671" x2="646" y2="671" stroke="#D1D5DB"/>

  <text x="254" y="718" fill="#6B7280" font-size="22" font-family="Inter,Segoe UI,Arial">Date</text>
  <text x="452" y="718" fill="#111827" font-size="22" font-family="Inter,Segoe UI,Arial">2026-03-10</text>
  <line x1="254" y1="737" x2="646" y2="737" stroke="#D1D5DB"/>

  <text x="254" y="784" fill="#6B7280" font-size="22" font-family="Inter,Segoe UI,Arial">Status</text>
  <text x="452" y="784" fill="#059669" font-size="22" font-family="Inter,Segoe UI,Arial" font-weight="700">Under Review</text>

  <rect x="254" y="1030" width="392" height="78" rx="16" fill="#DCFCE7"/>
  <text x="280" y="1079" fill="#166534" font-size="23" font-family="Inter,Segoe UI,Arial">Information looks good to submit</text>

  <rect x="254" y="1140" width="150" height="70" rx="18" fill="#E5E7EB"/>
  <text x="329" y="1185" text-anchor="middle" fill="#374151" font-size="26" font-family="Inter,Segoe UI,Arial">Back</text>
  <rect x="424" y="1140" width="222" height="70" rx="18" fill="#16A34A"/>
  <text x="535" y="1185" text-anchor="middle" fill="white" font-size="24" font-family="Inter,Segoe UI,Arial" font-weight="700">Submit</text>

  <text x="450" y="1320" text-anchor="middle" fill="#111827" font-size="28" font-family="Inter,Segoe UI,Arial" font-weight="700">iPhone Walkthrough Mockup</text>
  <rect x="380" y="1638" width="140" height="8" rx="4" fill="#111827"/>
</svg>
